<svg width="124" height="24" viewBox="0 0 124 24" fill="none" xmlns="http://www.w3.org/2000/svg">
<path d="M53.1562 6.13702C55.1577 6.13702 56.6874 6.6392 57.7453 7.64489C58.8031 8.65059 59.3313 10.26 59.3313 12.473V23.6968H53.28V14.3166C53.28 13.0063 53.1026 12.0954 52.7463 11.5824C52.39 11.0708 51.8618 10.8136 51.1602 10.8136C50.1794 10.8136 49.5012 11.2359 49.1243 12.0778C48.7474 12.9211 48.5589 14.1136 48.5589 15.6566V23.6968H42.4925V14.3166C42.4925 13.4842 42.4169 12.8114 42.2683 12.2984C42.1183 11.7854 41.8941 11.4105 41.5942 11.1723C41.2944 10.934 40.9188 10.8136 40.4649 10.8136C39.7729 10.8136 39.2351 11.0193 38.8472 11.4308C38.4606 11.8423 38.1896 12.4433 38.0342 13.2351C37.8787 14.0269 37.8017 14.9961 37.8017 16.1439V23.6968H31.7504V6.44158H36.316L37.1978 8.57344H37.3684C37.6779 8.10646 38.0782 7.68956 38.5679 7.3241C39.0576 6.95864 39.6409 6.66897 40.3163 6.45646C40.9917 6.24396 41.7634 6.13702 42.6301 6.13702C43.9204 6.13702 44.9824 6.35089 45.8187 6.77726C46.6551 7.20363 47.336 7.79243 47.8615 8.54366H48.0472C48.6043 7.77213 49.321 7.17791 50.1987 6.76237C51.0749 6.34547 52.0612 6.13838 53.1548 6.13838L53.1562 6.13702Z" fill="#171719"/>
<path d="M65.578 14.8932L60.2227 6.44159H67.0939L69.7557 11.2846L72.4794 6.44159H79.367L73.8729 14.8932L79.5844 23.6954H72.7132L69.7571 18.4572L66.816 23.6954H59.9283L65.5766 14.8932H65.578Z" fill="#171719"/>
<path d="M86.296 23.6954H80.2447V0H86.296V23.6954Z" fill="#171719"/>
<path d="M97.4632 6.13702C99.682 6.13702 101.415 6.67709 102.663 7.75859C103.912 8.84009 104.535 10.3804 104.535 12.381V23.6954H100.341L99.1799 21.4106H99.0561C98.5609 22.0197 98.0533 22.5151 97.5319 22.8955C97.0106 23.2758 96.415 23.556 95.745 23.7333C95.0737 23.9106 94.2539 24 93.2841 24C92.3143 24 91.3651 23.7969 90.5604 23.3909C89.7556 22.9848 89.1215 22.3703 88.6565 21.5487C88.1916 20.7271 87.9605 19.6862 87.9605 18.4274C87.9605 16.5798 88.6111 15.2086 89.9111 14.3152C91.211 13.4219 93.0942 12.9197 95.5607 12.8074L98.4852 12.7167V12.473C98.4852 11.7015 98.2913 11.1533 97.9047 10.8285C97.5182 10.5036 96.9996 10.3412 96.3489 10.3412C95.657 10.3412 94.8867 10.4603 94.0352 10.6985C93.1837 10.9368 92.3294 11.244 91.4738 11.6203L89.7254 7.69091C90.7364 7.18333 91.8823 6.79756 93.1616 6.53362C94.441 6.26967 95.8743 6.13838 97.4645 6.13838L97.4632 6.13702ZM98.5155 15.9896L97.122 16.0505C96.0078 16.0911 95.2264 16.282 94.778 16.6217C94.3295 16.9615 94.1053 17.446 94.1053 18.0754C94.1053 18.6642 94.2649 19.0987 94.5854 19.3776C94.9045 19.6564 95.3282 19.7958 95.8551 19.7958C96.5869 19.7958 97.2142 19.5671 97.7355 19.1109C98.2569 18.6548 98.5169 18.0605 98.5169 17.3296V15.9896H98.5155Z" fill="#171719"/>
<path d="M113.119 0V5.3601C113.119 5.96921 113.098 6.54988 113.057 7.10349C113.016 7.6571 112.964 8.17687 112.902 8.66415H113.119C113.573 7.96436 114.166 7.36744 114.899 6.87474C115.631 6.38204 116.591 6.13569 117.778 6.13569C119.605 6.13569 121.097 6.89775 122.258 8.42051C123.419 9.94326 124 12.1469 124 15.0299C124 16.9899 123.732 18.6372 123.195 19.9718C122.659 21.3064 121.908 22.3121 120.943 22.9875C119.979 23.663 118.862 24 117.592 24C116.323 24 115.412 23.7888 114.768 23.3679C114.123 22.9469 113.574 22.4921 113.12 22.0049H112.749L111.789 23.6954H107.069V0H113.12H113.119ZM115.565 10.8122C115.008 10.8122 114.548 10.9395 114.188 11.1926C113.826 11.4471 113.558 11.8396 113.383 12.3729C113.207 12.9062 113.12 13.583 113.12 14.406V15.2438C113.12 16.5838 113.303 17.5787 113.669 18.2284C114.035 18.8781 114.689 19.203 115.627 19.203C116.338 19.203 116.885 18.8429 117.268 18.1215C117.649 17.4014 117.84 16.3497 117.84 14.969C117.84 13.5884 117.654 12.5502 117.283 11.8545C116.912 11.1588 116.339 10.8109 115.565 10.8109V10.8122Z" fill="#171719"/>
<path d="M6.95232 0V7.78839L11.4189 5.20715L6.95232 0Z" fill="#EBE2FF"/>
<path d="M20.8556 0L11.4189 5.20715L16.6682 11.8477L20.8556 0Z" fill="#BB84FD"/>
<path d="M0 11.8477L6.95232 7.78839V15.7446L0 11.8477Z" fill="#E5D9FF"/>
<path d="M16.6682 11.8477L11.4189 18.3001L20.8556 23.6954L16.6682 11.8477Z" fill="#B28FFF"/>
<path d="M6.95232 15.7446V23.6954L11.4189 18.3002L6.95232 15.7446Z" fill="#D6A2FB"/>
<path d="M0 11.8477L6.95232 15.7446V23.6954L0 11.8477Z" fill="#AB43CE"/>
<path d="M6.95232 0V7.78839L0 11.8477L6.95232 0Z" fill="#C1B3F8"/>
<path d="M20.8556 0H6.95232L11.4189 5.20715L20.8556 0Z" fill="#5D2DB7"/>
<path d="M27.8065 11.8477H16.6682L20.8556 0L27.8065 11.8477Z" fill="#592EBC"/>
<path d="M20.8556 23.6954L27.8065 11.8477H16.6682L20.8556 23.6954Z" fill="#380077"/>
<path d="M6.95232 23.6955L11.4189 18.3002L20.8556 23.6955H6.95232Z" fill="#6A14BE"/>
<path d="M16.6682 11.8477L11.4189 18.3002L6.95232 15.7446V7.7884L11.4189 5.20715L16.6682 11.8477Z" fill="#F9F7FF"/>
</svg>
