<svg width="28" height="28" viewBox="0 0 28 28" fill="none" xmlns="http://www.w3.org/2000/svg">
<rect width="28" height="28" rx="14" fill="white"/>
<path d="M9.30651 6.00003V11.259L12.3225 9.51606L9.30651 6.00003Z" fill="#EBE2FF"/>
<path d="M18.6944 6.00003L12.3225 9.51606L15.867 14L18.6944 6.00003Z" fill="#BB84FD"/>
<path d="M4.61209 14L9.30651 11.259V16.6313L4.61209 14Z" fill="#E5D9FF"/>
<path d="M15.867 14L12.3225 18.3569L18.6944 21.9999L15.867 14Z" fill="#B28FFF"/>
<path d="M9.30651 16.6313V21.9999L12.3225 18.3569L9.30651 16.6313Z" fill="#D6A2FB"/>
<path d="M4.61209 14L9.30651 16.6313V21.9999L4.61209 14Z" fill="#AB43CE"/>
<path d="M9.30651 6.00003V11.259L4.61209 14L9.30651 6.00003Z" fill="#C1B3F8"/>
<path d="M18.6944 6.00003H9.30651L12.3225 9.51606L18.6944 6.00003Z" fill="#5D2DB7"/>
<path d="M23.3879 14H15.867L18.6944 6.00003L23.3879 14Z" fill="#592EBC"/>
<path d="M18.6944 21.9999L23.3879 14H15.867L18.6944 21.9999Z" fill="#380077"/>
<path d="M9.30651 21.9999L12.3225 18.3569L18.6944 21.9999H9.30651Z" fill="#6A14BE"/>
<path d="M15.867 14L12.3225 18.3568L9.30651 16.6313V11.259L12.3225 9.51605L15.867 14Z" fill="#F9F7FF"/>
</svg>
