<svg width="40" height="40" viewBox="0 0 40 40" fill="none" xmlns="http://www.w3.org/2000/svg">
<path fill-rule="evenodd" clip-rule="evenodd" d="M22.6472 17.019L24.6451 18.8615L23.9142 18.8364L12.7455 18.8364C12.4311 18.8364 12.1444 18.9423 11.9244 19.1726C11.7028 19.3985 11.6001 19.6854 11.6001 19.9996C11.6001 20.3138 11.7028 20.6007 11.9244 20.8266C12.1444 21.057 12.4311 21.1628 12.7455 21.1628L23.9006 21.163L24.6393 21.1379L22.647 22.9804L20.7433 24.9422C20.6358 25.0514 20.5548 25.1795 20.5016 25.323L20.4991 25.3303C20.4504 25.4698 20.426 25.6144 20.426 25.7621C20.426 26.0714 20.5331 26.3511 20.756 26.5692C20.9752 26.7896 21.2531 26.8996 21.5629 26.8996C21.8794 26.8996 22.1586 26.7755 22.3879 26.5593L28.0261 20.8598C28.1429 20.7482 28.2367 20.6178 28.2992 20.4681C28.3665 20.3199 28.4001 20.1624 28.4001 19.9996C28.4001 19.8393 28.3652 19.6849 28.2992 19.5397C28.2371 19.3908 28.1441 19.2588 28.0302 19.1435L22.3976 13.4582L22.393 13.4537C22.1648 13.2306 21.8842 13.0996 21.5629 13.0996C21.2569 13.0996 20.9796 13.204 20.7589 13.4185L20.7531 13.4243C20.5338 13.6464 20.426 13.9265 20.426 14.2371C20.426 14.3835 20.45 14.5267 20.5004 14.664C20.5523 14.8113 20.6326 14.9445 20.7433 15.057L22.6472 17.019Z" fill="#46474C" fill-opacity="0.68"/>
</svg>
